<?xml version="1.0" encoding="utf-8"?>
<!-- Generator: Adobe Illustrator 23.0.3, SVG Export Plug-In . SVG Version: 6.00 Build 0)  -->
<svg version="1.1" id="Layer_1" xmlns="http://www.w3.org/2000/svg" xmlns:xlink="http://www.w3.org/1999/xlink" x="0px" y="0px"
	 viewBox="0 0 409.3 138.7" style="enable-background:new 0 0 409.3 138.7;" xml:space="preserve">
<style type="text/css">
	.st0{fill:#FFFFFF;}
</style>
<g>
	<path class="st0" d="M143.6,61.8h8.9v40.3h-8.9V61.8z"/>
	<path class="st0" d="M179.2,102.8c-3,0-5.7-0.5-8.2-1.6c-2.5-1.1-4.7-2.5-6.6-4.4c-1.8-1.9-3.3-4.1-4.3-6.6c-1-2.5-1.6-5.2-1.6-8.1
		V82c0-2.9,0.5-5.6,1.6-8.1c1-2.5,2.5-4.7,4.3-6.6c1.9-1.9,4.1-3.4,6.6-4.5c2.6-1.1,5.4-1.6,8.5-1.6c1.9,0,3.6,0.2,5.2,0.5
		c1.5,0.3,3,0.7,4.2,1.3c1.3,0.5,2.4,1.2,3.5,2c1.1,0.8,2.1,1.6,3,2.5l-5.7,6.5c-1.6-1.4-3.2-2.5-4.8-3.3c-1.6-0.8-3.5-1.2-5.5-1.2
		c-1.7,0-3.3,0.3-4.7,1c-1.4,0.7-2.7,1.6-3.7,2.7c-1,1.2-1.9,2.5-2.4,4c-0.6,1.5-0.9,3.1-0.9,4.9V82c0,1.7,0.3,3.4,0.9,4.9
		c0.6,1.5,1.4,2.9,2.4,4c1,1.2,2.2,2.1,3.7,2.7c1.4,0.7,3,1,4.8,1c2.3,0,4.3-0.4,5.8-1.3c1.6-0.8,3.2-2,4.7-3.5l5.7,5.7
		c-1,1.1-2.1,2.1-3.2,3c-1.1,0.9-2.3,1.6-3.7,2.3c-1.3,0.6-2.8,1.1-4.4,1.4C182.9,102.7,181.2,102.8,179.2,102.8z"/>
	<path class="st0" d="M212,66h-13.5v-4.2h31.6V66h-13.5v36.1H212V66z"/>
	<path class="st0" d="M236.4,61.8h29.2V66H241v13.8h22v4.1h-22V98h24.9v4.1h-29.5V61.8z"/>
	<path class="st0" d="M272.7,61.8h17.3c2.5,0,4.7,0.4,6.6,1.1c1.9,0.7,3.5,1.7,4.8,3c1,1,1.8,2.2,2.3,3.5c0.5,1.4,0.8,2.8,0.8,4.4
		v0.1c0,1.7-0.3,3.2-0.8,4.5c-0.5,1.3-1.3,2.5-2.3,3.5c-1,1-2.1,1.8-3.5,2.4c-1.3,0.6-2.8,1.1-4.4,1.4l12.4,16.5h-5.6l-11.7-15.7
		h-11.5v15.7h-4.6V61.8z M289.7,82.4c1.5,0,2.9-0.2,4.1-0.6c1.3-0.4,2.4-0.9,3.3-1.6c0.9-0.7,1.6-1.6,2.2-2.6c0.5-1,0.8-2.2,0.8-3.5
		V74c0-2.5-0.9-4.4-2.7-5.8c-1.8-1.4-4.3-2.1-7.6-2.1h-12.5v16.4H289.7z"/>
	<path class="st0" d="M312.1,61.8h17.3c2.5,0,4.7,0.4,6.6,1.1c1.9,0.7,3.5,1.7,4.8,3c1,1,1.8,2.2,2.3,3.5c0.5,1.4,0.8,2.8,0.8,4.4
		v0.1c0,1.7-0.3,3.2-0.8,4.5c-0.5,1.3-1.3,2.5-2.3,3.5c-1,1-2.1,1.8-3.5,2.4c-1.4,0.6-2.8,1.1-4.4,1.4l12.4,16.5h-5.6l-11.7-15.7
		h-11.5v15.7h-4.6V61.8z M329,82.4c1.5,0,2.9-0.2,4.2-0.6c1.3-0.4,2.4-0.9,3.3-1.6c0.9-0.7,1.7-1.6,2.2-2.6c0.5-1,0.8-2.2,0.8-3.5
		V74c0-2.5-0.9-4.4-2.7-5.8c-1.8-1.4-4.3-2.1-7.6-2.1h-12.5v16.4H329z"/>
	<path class="st0" d="M366.4,61.5h4.3l18.4,40.6h-4.9l-4.7-10.7h-22l-4.8,10.7H348L366.4,61.5z M377.6,87.3l-9.2-20.5l-9.2,20.5
		H377.6z"/>
</g>
<g>
	<defs>
		<path id="XMLID_48_" d="M78,124.2c-11.2-4.6-17.7-16.4-14.4-27.4c4.1-12.1,17.8-18.4,30.6-13.5c12.6,4.9,18.1,18.5,13,29.9
			C102.1,123.2,89.3,127.9,78,124.2z M58.7,94.4c3.9-11.9-1-25.1-10-28.5c-7-2.6-13.9,3.6-16.4,13.1c-1.4,9.1,1.5,19.6,7.1,24.5
			C46.8,108.8,55.7,105.4,58.7,94.4z M30.7,77.7c2.4-9.2,2.4-17.4,0.4-18.1c-1-0.3-3.2,4.7-4.8,11.1c-1,6.4-1.2,13.2-0.5,16
			C27.1,89.9,29.4,86.4,30.7,77.7z M29.3,59.8c-2.4,6.1-3.7,12.3-4.2,18.5h0c0,0.4,0.3-2.8,1.2-8.1c1.5-5.8,3-10.4,3.2-10.9
			C29.4,59.5,29.4,59.6,29.3,59.8z M125,65.1c2.4-10-4.1-21-14.5-25.7c-10.8-3.9-23-0.3-27.7,8.9c-5,10.9,0.8,24.3,13.6,29.1
			C109,82.4,121.7,76.4,125,65.1z M77.7,46.9c5-9,0.7-16.3-8.2-17c-7.4,0.2-16.6,5.5-21.8,12.3c-4.9,8.1-4.1,16.5,3,18.8
			C59.8,64,72.6,57.5,77.7,46.9z M45.6,42.4c5.1-6.6,5.7-9.8,2.3-8.1C45.2,36.1,40.5,41,36.8,46c-3.4,5.6-5.3,10.3-4.2,10.2
			C34.7,56.5,40.8,50.2,45.6,42.4z M30.5,56.9c0.3-0.5,2.7-5.2,5.8-10.4c2.8-3.9,4.6-6.1,4.6-6l0,0C36.7,45.3,33.2,50.8,30.5,56.9z
			 M129.2,35.3c-0.6-3.2-6.6-8.1-13.6-11.5c-7.4-2.6-14.8-3.2-17.1-1.2c-2.9,3.5,2.7,9.9,13.1,13.6
			C121.6,40.8,129.4,39.9,129.2,35.3z M94.5,21.9c2.6-2-1.5-3.5-8.3-3.6c-6.2,0.5-13.8,2.3-18,4.2c-4.7,2.9-3.7,5.3,3.6,5
			C80.5,28,91.3,25.3,94.5,21.9z M65.9,23.2c4.3-2,3.5-1.9-0.5-0.4c-4.5,1.9-8.8,4.2-12.8,7.1l0,0c-3.9,3-5.4,4.4-2.7,2.5
			C53.5,30.5,61.2,26,65.9,23.2z M44,37.1L44,37.1c2.1-2,5-4.5,7.5-6.5c0.2-0.1,0.3-0.2,0.4-0.3l0,0C49.1,32.4,46.4,34.6,44,37.1z
			 M125.6,27.7c-0.6-0.4-2.7-1.6-5.4-3l0,0c-1.9-0.9-3.8-1.8-5.8-2.6c-1.1-0.4-2.2-0.8-3.3-1.2v0c-3-0.9-5.4-1.5-6-1.6
			c-1.1,0,3.7,1.6,10.7,4.1C122.4,26.5,126.6,28.5,125.6,27.7z M102.3,18.7c0.6,0.1-0.2-0.1-1.7-0.3v0c-5.9-0.9-11.8-1-17.6-0.3v0
			c-0.2,0-0.4,0.1-0.6,0.1c-2.7,0.4-0.9,0.2,5.1-0.2C94.1,18.1,101,18.6,102.3,18.7z M66.9,22.1l13.2-3.6l0,0
			C75.6,19.2,71.2,20.4,66.9,22.1z"/>
	</defs>
	<use xlink:href="#XMLID_48_"  style="overflow:visible;fill-rule:evenodd;clip-rule:evenodd;fill:#FFFFFF;"/>
	<clipPath id="XMLID_2_">
		<use xlink:href="#XMLID_48_"  style="overflow:visible;"/>
	</clipPath>
	<g style="clip-path:url(#XMLID_2_);">
		
			<image style="overflow:visible;" width="1681" height="1337" xlink:href="581B9178.jpg"  transform="matrix(0.1304 0 0 0.1304 -32.5058 -15.7325)">
		</image>
	</g>
</g>
</svg>
